<svg xmlns="http://www.w3.org/2000/svg" viewBox="0 0 1200 900" width="1200" height="900" role="img" preserveAspectRatio="xMidYMid slice"><defs><linearGradient id="gal07_sky" x1="0" y1="0" x2="0" y2="1"><stop offset="0.00" stop-color="#0a4450"/><stop offset="0.25" stop-color="#168599"/><stop offset="0.50" stop-color="#3fb2c4"/><stop offset="0.75" stop-color="#a3e0ea"/><stop offset="1.00" stop-color="#eafafc"/></linearGradient><radialGradient id="gal07_sun"><stop offset="0" stop-color="#ffffff" stop-opacity=".96"/><stop offset=".45" stop-color="#dcf7fb" stop-opacity=".55"/><stop offset="1" stop-color="#b9eaf3" stop-opacity="0"/></radialGradient><radialGradient id="gal07_bok"><stop offset="0" stop-color="#ffffff" stop-opacity=".55"/><stop offset="1" stop-color="#ffffff" stop-opacity="0"/></radialGradient><filter id="gal07_gr" x="0" y="0" width="100%" height="100%"><feTurbulence type="fractalNoise" baseFrequency="0.9" numOctaves="3" stitchTiles="stitch"/><feColorMatrix type="saturate" values="0"/><feComponentTransfer><feFuncA type="linear" slope="0.5"/></feComponentTransfer></filter><filter id="gal07_soft" x="-20%" y="-20%" width="140%" height="140%"><feGaussianBlur stdDeviation="14"/></filter></defs><rect width="1200" height="900" fill="url(#gal07_sky)"/><circle cx="880" cy="230" r="200" fill="url(#gal07_sun)"/><circle cx="880" cy="230" r="60" fill="#ffffff" opacity=".92"/><circle cx="626" cy="508" r="64" fill="url(#gal07_bok)" opacity="0.27"/><circle cx="919" cy="444" r="49" fill="url(#gal07_bok)" opacity="0.22"/><circle cx="32" cy="242" r="53" fill="url(#gal07_bok)" opacity="0.26"/><circle cx="602" cy="200" r="58" fill="url(#gal07_bok)" opacity="0.48"/><circle cx="482" cy="629" r="18" fill="url(#gal07_bok)" opacity="0.44"/><circle cx="1050" cy="95" r="51" fill="url(#gal07_bok)" opacity="0.36"/><circle cx="1146" cy="132" r="42" fill="url(#gal07_bok)" opacity="0.46"/><circle cx="767" cy="195" r="19" fill="url(#gal07_bok)" opacity="0.48"/><circle cx="569" cy="628" r="22" fill="url(#gal07_bok)" opacity="0.44"/><circle cx="976" cy="580" r="15" fill="url(#gal07_bok)" opacity="0.30"/><circle cx="62" cy="474" r="33" fill="url(#gal07_bok)" opacity="0.49"/><circle cx="450" cy="488" r="59" fill="url(#gal07_bok)" opacity="0.26"/><circle cx="668" cy="603" r="42" fill="url(#gal07_bok)" opacity="0.30"/><circle cx="321" cy="495" r="24" fill="url(#gal07_bok)" opacity="0.37"/><path d="M0,900 L0,782 Q100,782 200,760 Q300,760 400,733 Q500,733 600,728 Q700,728 800,754 Q900,754 1000,776 Q1100,776 1200,787 L1200,900 Z" fill="#6dc8d6" opacity="0.45"/><path d="M0,900 L0,843 Q100,843 200,863 Q300,863 400,871 Q500,871 600,852 Q700,852 800,842 Q900,842 1000,834 Q1100,834 1200,845 L1200,900 Z" fill="#1f7482" opacity="0.8"/><path d="M0,900 L0,904 Q100,904 200,889 Q300,889 400,882 Q500,882 600,894 Q700,894 800,909 Q900,909 1000,911 Q1100,911 1200,901 L1200,900 Z" fill="#062229" opacity="1"/><g fill="#03141a" stroke="#03141a" opacity="1.0" stroke-linecap="round" stroke-linejoin="round"><circle cx="300.0" cy="676.0" r="21.0"/><line x1="300.0" y1="698.0" x2="300.0" y2="767.0" stroke-width="31.0"/><path d="M287.6,709.0 L262.0,683.0 L256.0,649.0" fill="none" stroke-width="17.0"/><path d="M312.4,709.0 L338.0,683.0 L344.0,649.0" fill="none" stroke-width="17.0"/><line x1="300.0" y1="767.0" x2="285.0" y2="855.0" stroke-width="17.0"/><line x1="300.0" y1="767.0" x2="315.0" y2="855.0" stroke-width="17.0"/></g><g fill="#03141a" stroke="#03141a" opacity="1.0" stroke-linecap="round" stroke-linejoin="round"><circle cx="430.0" cy="698.4" r="18.4"/><line x1="430.0" y1="717.7" x2="430.0" y2="778.0" stroke-width="27.1"/><path d="M419.1,727.3 L407.2,755.3" fill="none" stroke-width="14.9"/><path d="M440.9,727.3 L452.8,755.3" fill="none" stroke-width="14.9"/><line x1="430.0" y1="778.0" x2="416.9" y2="855.0" stroke-width="14.9"/><line x1="430.0" y1="778.0" x2="443.1" y2="855.0" stroke-width="14.9"/></g><g fill="#03141a" stroke="#03141a" opacity="1.0" stroke-linecap="round" stroke-linejoin="round"><circle cx="560.0" cy="671.5" r="21.5"/><line x1="560.0" y1="694.1" x2="560.0" y2="764.8" stroke-width="31.8"/><path d="M547.3,705.4 L521.0,678.8 L514.9,643.9" fill="none" stroke-width="17.4"/><path d="M572.7,705.4 L599.0,678.8 L605.1,643.9" fill="none" stroke-width="17.4"/><line x1="560.0" y1="764.8" x2="544.6" y2="855.0" stroke-width="17.4"/><line x1="560.0" y1="764.8" x2="575.4" y2="855.0" stroke-width="17.4"/></g><g fill="#03141a" stroke="#03141a" opacity="1.0" stroke-linecap="round" stroke-linejoin="round"><circle cx="690.0" cy="707.3" r="17.3"/><line x1="690.0" y1="725.5" x2="690.0" y2="782.4" stroke-width="25.6"/><path d="M679.8,734.6 L668.5,761.0" fill="none" stroke-width="14.0"/><path d="M700.2,734.6 L711.5,761.0" fill="none" stroke-width="14.0"/><line x1="690.0" y1="782.4" x2="677.6" y2="855.0" stroke-width="14.0"/><line x1="690.0" y1="782.4" x2="702.4" y2="855.0" stroke-width="14.0"/></g><g fill="#03141a" stroke="#03141a" opacity="1.0" stroke-linecap="round" stroke-linejoin="round"><circle cx="830.0" cy="680.5" r="20.5"/><line x1="830.0" y1="702.0" x2="830.0" y2="769.2" stroke-width="30.2"/><path d="M817.9,712.7 L793.0,687.3 L787.1,654.2" fill="none" stroke-width="16.6"/><path d="M842.1,712.7 L867.0,687.3 L872.9,654.2" fill="none" stroke-width="16.6"/><line x1="830.0" y1="769.2" x2="815.4" y2="855.0" stroke-width="16.6"/><line x1="830.0" y1="769.2" x2="844.6" y2="855.0" stroke-width="16.6"/></g><rect width="1200" height="900" filter="url(#gal07_gr)" opacity="0.055"/></svg>