<svg xmlns="http://www.w3.org/2000/svg" viewBox="0 0 1200 900" width="1200" height="900" role="img" preserveAspectRatio="xMidYMid slice"><defs><linearGradient id="gal10_sky" x1="0" y1="0" x2="0" y2="1"><stop offset="0.00" stop-color="#2b1a44"/><stop offset="0.25" stop-color="#8a3f72"/><stop offset="0.50" stop-color="#f0836a"/><stop offset="0.75" stop-color="#ffc98a"/><stop offset="1.00" stop-color="#ffeccc"/></linearGradient><radialGradient id="gal10_sun"><stop offset="0" stop-color="#fff8e2" stop-opacity=".95"/><stop offset=".45" stop-color="#ffe6ae" stop-opacity=".55"/><stop offset="1" stop-color="#ffd591" stop-opacity="0"/></radialGradient><radialGradient id="gal10_bok"><stop offset="0" stop-color="#ffffff" stop-opacity=".55"/><stop offset="1" stop-color="#ffffff" stop-opacity="0"/></radialGradient><filter id="gal10_gr" x="0" y="0" width="100%" height="100%"><feTurbulence type="fractalNoise" baseFrequency="0.9" numOctaves="3" stitchTiles="stitch"/><feColorMatrix type="saturate" values="0"/><feComponentTransfer><feFuncA type="linear" slope="0.5"/></feComponentTransfer></filter><filter id="gal10_soft" x="-20%" y="-20%" width="140%" height="140%"><feGaussianBlur stdDeviation="14"/></filter></defs><rect width="1200" height="900" fill="url(#gal10_sky)"/><circle cx="240" cy="250" r="240" fill="url(#gal10_sun)"/><circle cx="240" cy="250" r="72" fill="#fff6dd" opacity=".9"/><circle cx="1087" cy="432" r="54" fill="url(#gal10_bok)" opacity="0.47"/><circle cx="312" cy="401" r="61" fill="url(#gal10_bok)" opacity="0.46"/><circle cx="688" cy="107" r="36" fill="url(#gal10_bok)" opacity="0.50"/><circle cx="124" cy="201" r="63" fill="url(#gal10_bok)" opacity="0.32"/><circle cx="250" cy="200" r="61" fill="url(#gal10_bok)" opacity="0.29"/><circle cx="513" cy="395" r="56" fill="url(#gal10_bok)" opacity="0.34"/><circle cx="98" cy="361" r="16" fill="url(#gal10_bok)" opacity="0.21"/><circle cx="228" cy="437" r="29" fill="url(#gal10_bok)" opacity="0.40"/><circle cx="196" cy="74" r="16" fill="url(#gal10_bok)" opacity="0.41"/><circle cx="1031" cy="138" r="27" fill="url(#gal10_bok)" opacity="0.18"/><circle cx="774" cy="189" r="21" fill="url(#gal10_bok)" opacity="0.39"/><circle cx="720" cy="282" r="22" fill="url(#gal10_bok)" opacity="0.38"/><circle cx="667" cy="273" r="23" fill="url(#gal10_bok)" opacity="0.48"/><circle cx="1036" cy="435" r="66" fill="url(#gal10_bok)" opacity="0.37"/><path d="M0,900 L0,767 Q100,767 200,783 Q300,783 400,807 Q500,807 600,806 Q700,806 800,782 Q900,782 1000,768 Q1100,768 1200,773 L1200,900 Z" fill="#ffcf9b" opacity="0.45"/><path d="M0,900 L0,862 Q100,862 200,849 Q300,849 400,848 Q500,848 600,861 Q700,861 800,875 Q900,875 1000,871 Q1100,871 1200,860 L1200,900 Z" fill="#a9714f" opacity="0.8"/><path d="M0,900 L0,902 Q100,902 200,907 Q300,907 400,901 Q500,901 600,893 Q700,893 800,888 Q900,888 1000,894 Q1100,894 1200,904 L1200,900 Z" fill="#3a2a34" opacity="1"/><g fill="#2a2030" stroke="#2a2030" opacity="1.0" stroke-linecap="round" stroke-linejoin="round"><circle cx="230.0" cy="644.7" r="25.2"/><line x1="230.0" y1="671.2" x2="230.0" y2="753.9" stroke-width="37.2"/><path d="M215.1,684.4 L198.8,722.8" fill="none" stroke-width="20.4"/><path d="M244.9,684.4 L261.2,722.8" fill="none" stroke-width="20.4"/><line x1="230.0" y1="753.9" x2="212.0" y2="859.5" stroke-width="20.4"/><line x1="230.0" y1="753.9" x2="248.0" y2="859.5" stroke-width="20.4"/></g><g fill="#2a2030" stroke="#2a2030" opacity="1.0" stroke-linecap="round" stroke-linejoin="round"><circle cx="360.0" cy="631.3" r="26.8"/><line x1="360.0" y1="659.4" x2="360.0" y2="747.3" stroke-width="39.5"/><path d="M375.8,673.4 L403.4,709.1 L426.3,724.4" fill="none" stroke-width="21.7"/><path d="M344.2,673.4 L326.9,714.2 L334.5,749.9" fill="none" stroke-width="21.7"/><line x1="360.0" y1="747.3" x2="340.9" y2="859.5" stroke-width="21.7"/><line x1="360.0" y1="747.3" x2="379.1" y2="859.5" stroke-width="21.7"/></g><g fill="#2a2030" stroke="#2a2030" opacity="1.0" stroke-linecap="round" stroke-linejoin="round"><circle cx="490.0" cy="658.1" r="23.6"/><line x1="490.0" y1="682.9" x2="490.0" y2="760.5" stroke-width="34.9"/><path d="M476.1,695.3 L451.8,726.8 L431.5,740.3" fill="none" stroke-width="19.1"/><path d="M503.9,695.3 L519.2,731.3 L512.5,762.8" fill="none" stroke-width="19.1"/><line x1="490.0" y1="760.5" x2="473.1" y2="859.5" stroke-width="19.1"/><line x1="490.0" y1="760.5" x2="506.9" y2="859.5" stroke-width="19.1"/></g><g fill="#2a2030" stroke="#2a2030" opacity="1.0" stroke-linecap="round" stroke-linejoin="round"><circle cx="620.0" cy="635.8" r="26.2"/><line x1="620.0" y1="663.3" x2="620.0" y2="749.5" stroke-width="38.8"/><path d="M604.5,677.1 L587.5,717.1" fill="none" stroke-width="21.2"/><path d="M635.5,677.1 L652.5,717.1" fill="none" stroke-width="21.2"/><line x1="620.0" y1="749.5" x2="601.2" y2="859.5" stroke-width="21.2"/><line x1="620.0" y1="749.5" x2="638.8" y2="859.5" stroke-width="21.2"/></g><g fill="#2a2030" stroke="#2a2030" opacity="1.0" stroke-linecap="round" stroke-linejoin="round"><circle cx="750.0" cy="649.2" r="24.7"/><line x1="750.0" y1="675.1" x2="750.0" y2="756.1" stroke-width="36.4"/><path d="M735.4,688.0 L705.4,657.5 L698.3,617.5" fill="none" stroke-width="20.0"/><path d="M764.6,688.0 L794.6,657.5 L801.7,617.5" fill="none" stroke-width="20.0"/><line x1="750.0" y1="756.1" x2="732.4" y2="859.5" stroke-width="20.0"/><line x1="750.0" y1="756.1" x2="767.6" y2="859.5" stroke-width="20.0"/></g><g fill="#2a2030" stroke="#2a2030" opacity="1.0" stroke-linecap="round" stroke-linejoin="round"><circle cx="880.0" cy="640.2" r="25.7"/><line x1="880.0" y1="667.2" x2="880.0" y2="751.7" stroke-width="38.0"/><path d="M864.8,680.7 L848.1,719.9" fill="none" stroke-width="20.8"/><path d="M895.2,680.7 L911.9,719.9" fill="none" stroke-width="20.8"/><line x1="880.0" y1="751.7" x2="861.6" y2="859.5" stroke-width="20.8"/><line x1="880.0" y1="751.7" x2="898.4" y2="859.5" stroke-width="20.8"/></g><rect width="1200" height="900" filter="url(#gal10_gr)" opacity="0.055"/></svg>