<svg xmlns="http://www.w3.org/2000/svg" viewBox="0 0 1200 900" width="1200" height="900" role="img" preserveAspectRatio="xMidYMid slice"><defs><linearGradient id="gal03_sky" x1="0" y1="0" x2="0" y2="1"><stop offset="0.00" stop-color="#2a1533"/><stop offset="0.25" stop-color="#6d2f57"/><stop offset="0.50" stop-color="#c25f77"/><stop offset="0.75" stop-color="#ff9f9f"/><stop offset="1.00" stop-color="#ffe0d2"/></linearGradient><radialGradient id="gal03_sun"><stop offset="0" stop-color="#fff8e2" stop-opacity=".95"/><stop offset=".45" stop-color="#ffe6ae" stop-opacity=".55"/><stop offset="1" stop-color="#ffd591" stop-opacity="0"/></radialGradient><radialGradient id="gal03_bok"><stop offset="0" stop-color="#ffffff" stop-opacity=".55"/><stop offset="1" stop-color="#ffffff" stop-opacity="0"/></radialGradient><filter id="gal03_gr" x="0" y="0" width="100%" height="100%"><feTurbulence type="fractalNoise" baseFrequency="0.9" numOctaves="3" stitchTiles="stitch"/><feColorMatrix type="saturate" values="0"/><feComponentTransfer><feFuncA type="linear" slope="0.5"/></feComponentTransfer></filter><filter id="gal03_soft" x="-20%" y="-20%" width="140%" height="140%"><feGaussianBlur stdDeviation="14"/></filter></defs><rect width="1200" height="900" fill="url(#gal03_sky)"/><circle cx="600" cy="250" r="260" fill="url(#gal03_sun)"/><circle cx="600" cy="250" r="78" fill="#fff6dd" opacity=".9"/><circle cx="311" cy="432" r="50" fill="url(#gal03_bok)" opacity="0.45"/><circle cx="223" cy="145" r="22" fill="url(#gal03_bok)" opacity="0.25"/><circle cx="881" cy="82" r="42" fill="url(#gal03_bok)" opacity="0.25"/><circle cx="354" cy="272" r="58" fill="url(#gal03_bok)" opacity="0.37"/><circle cx="17" cy="174" r="22" fill="url(#gal03_bok)" opacity="0.46"/><circle cx="972" cy="508" r="57" fill="url(#gal03_bok)" opacity="0.42"/><circle cx="1139" cy="500" r="28" fill="url(#gal03_bok)" opacity="0.45"/><circle cx="584" cy="476" r="44" fill="url(#gal03_bok)" opacity="0.32"/><circle cx="437" cy="271" r="31" fill="url(#gal03_bok)" opacity="0.22"/><circle cx="984" cy="503" r="65" fill="url(#gal03_bok)" opacity="0.40"/><circle cx="665" cy="471" r="21" fill="url(#gal03_bok)" opacity="0.40"/><circle cx="532" cy="111" r="25" fill="url(#gal03_bok)" opacity="0.35"/><circle cx="304" cy="289" r="46" fill="url(#gal03_bok)" opacity="0.31"/><circle cx="157" cy="309" r="27" fill="url(#gal03_bok)" opacity="0.26"/><circle cx="600" cy="404" r="250" fill="#ffffff" opacity=".10"/><g transform="translate(450,594) rotate(-22)" fill="#2b1f47" opacity=".94"><ellipse cx="0" cy="75" rx="112" ry="125" /><rect x="-24" y="-200" width="48" height="270" rx="24" transform="rotate(-26)"/><rect x="-24" y="-232" width="48" height="302" rx="24" transform="rotate(-7)"/><rect x="-24" y="-224" width="48" height="294" rx="24" transform="rotate(11)"/><rect x="-24" y="-186" width="48" height="256" rx="24" transform="rotate(29)"/><rect x="-27" y="-90" width="54" height="180" rx="27" transform="translate(80,60) rotate(62)"/></g><g transform="translate(750,594) rotate(22)" fill="#2b1f47" opacity=".94"><ellipse cx="0" cy="75" rx="112" ry="125" /><rect x="-24" y="-200" width="48" height="270" rx="24" transform="rotate(-42)"/><rect x="-24" y="-232" width="48" height="302" rx="24" transform="rotate(-23)"/><rect x="-24" y="-224" width="48" height="294" rx="24" transform="rotate(-5)"/><rect x="-24" y="-186" width="48" height="256" rx="24" transform="rotate(13)"/><rect x="-27" y="-90" width="54" height="180" rx="27" transform="translate(-80,60) rotate(-62)"/></g><path d="M600.0,512.8 C418.8,386.6 495.6,270.6 600.0,354.7 C704.4,270.6 781.2,386.6 600.0,512.8 Z" fill="#ff7f9c" opacity="0.95"/><path d="M600.0,572.8 C318.8,377.0 438.0,197.0 600.0,327.5 C762.0,197.0 881.2,377.0 600.0,572.8 Z" fill="#ff7f9c" opacity="0.13"/><rect width="1200" height="900" filter="url(#gal03_gr)" opacity="0.055"/></svg>