<svg xmlns="http://www.w3.org/2000/svg" viewBox="0 0 1000 1250" width="1000" height="1250" role="img" preserveAspectRatio="xMidYMid slice"><defs><linearGradient id="hero4_sky" x1="0" y1="0" x2="0" y2="1"><stop offset="0.00" stop-color="#0a4450"/><stop offset="0.25" stop-color="#168599"/><stop offset="0.50" stop-color="#3fb2c4"/><stop offset="0.75" stop-color="#a3e0ea"/><stop offset="1.00" stop-color="#eafafc"/></linearGradient><radialGradient id="hero4_sun"><stop offset="0" stop-color="#ffffff" stop-opacity=".96"/><stop offset=".45" stop-color="#dcf7fb" stop-opacity=".55"/><stop offset="1" stop-color="#b9eaf3" stop-opacity="0"/></radialGradient><radialGradient id="hero4_bok"><stop offset="0" stop-color="#ffffff" stop-opacity=".55"/><stop offset="1" stop-color="#ffffff" stop-opacity="0"/></radialGradient><filter id="hero4_gr" x="0" y="0" width="100%" height="100%"><feTurbulence type="fractalNoise" baseFrequency="0.9" numOctaves="3" stitchTiles="stitch"/><feColorMatrix type="saturate" values="0"/><feComponentTransfer><feFuncA type="linear" slope="0.5"/></feComponentTransfer></filter><filter id="hero4_soft" x="-20%" y="-20%" width="140%" height="140%"><feGaussianBlur stdDeviation="14"/></filter></defs><rect width="1000" height="1250" fill="url(#hero4_sky)"/><circle cx="300" cy="360" r="270" fill="url(#hero4_sun)"/><circle cx="300" cy="360" r="81" fill="#ffffff" opacity=".92"/><circle cx="43" cy="516" r="13" fill="url(#hero4_bok)" opacity="0.34"/><circle cx="977" cy="254" r="54" fill="url(#hero4_bok)" opacity="0.38"/><circle cx="884" cy="17" r="44" fill="url(#hero4_bok)" opacity="0.35"/><circle cx="604" cy="331" r="54" fill="url(#hero4_bok)" opacity="0.39"/><circle cx="726" cy="598" r="35" fill="url(#hero4_bok)" opacity="0.44"/><circle cx="616" cy="495" r="18" fill="url(#hero4_bok)" opacity="0.36"/><circle cx="154" cy="513" r="30" fill="url(#hero4_bok)" opacity="0.42"/><circle cx="589" cy="319" r="34" fill="url(#hero4_bok)" opacity="0.25"/><circle cx="982" cy="748" r="29" fill="url(#hero4_bok)" opacity="0.25"/><circle cx="446" cy="559" r="31" fill="url(#hero4_bok)" opacity="0.48"/><circle cx="51" cy="299" r="34" fill="url(#hero4_bok)" opacity="0.19"/><circle cx="466" cy="501" r="25" fill="url(#hero4_bok)" opacity="0.50"/><circle cx="349" cy="322" r="38" fill="url(#hero4_bok)" opacity="0.26"/><circle cx="471" cy="137" r="14" fill="url(#hero4_bok)" opacity="0.40"/><path d="M0,1250 L0,1046 Q83,1046 167,1007 Q250,1007 333,1006 Q417,1006 500,1040 Q583,1040 667,1081 Q750,1081 833,1070 Q917,1070 1000,1040 L1000,1250 Z" fill="#4fafbe" opacity="0.4"/><path d="M0,1250 L0,1181 Q83,1181 167,1195 Q250,1195 333,1177 Q417,1177 500,1156 Q583,1156 667,1141 Q750,1141 833,1160 Q917,1160 1000,1186 L1000,1250 Z" fill="#175f6c" opacity="0.8"/><path d="M0,1250 L0,1230 Q83,1230 167,1233 Q250,1233 333,1253 Q417,1253 500,1260 Q583,1260 667,1256 Q750,1256 833,1236 Q917,1236 1000,1225 L1000,1250 Z" fill="#052027" opacity="1"/><g opacity="0.95"><rect x="190" y="1113" width="120" height="94" rx="7" fill="#bfeef4"/><rect x="240" y="1113" width="19" height="94" fill="#ffffff" opacity=".18"/><rect x="190" y="1148" width="120" height="9" fill="#ffffff" opacity=".18"/></g><g opacity="0.85"><rect x="320" y="1138" width="88" height="69" rx="5" fill="#ffffff"/><rect x="357" y="1138" width="14" height="69" fill="#ffffff" opacity=".18"/><rect x="320" y="1164" width="88" height="7" fill="#ffffff" opacity=".18"/></g><g fill="#03141a" stroke="#03141a" opacity="1.0" stroke-linecap="round" stroke-linejoin="round"><circle cx="500.0" cy="889.5" r="35.7"/><line x1="500.0" y1="926.9" x2="500.0" y2="1044.2" stroke-width="52.7"/><path d="M478.9,945.6 L445.6,979.6 L493.2,989.8" fill="none" stroke-width="28.9"/><path d="M521.1,945.6 L554.4,979.6 L506.8,989.8" fill="none" stroke-width="28.9"/><line x1="500.0" y1="1044.2" x2="474.5" y2="1193.8" stroke-width="28.9"/><line x1="500.0" y1="1044.2" x2="525.5" y2="1193.8" stroke-width="28.9"/></g><g fill="#03141a" stroke="#03141a" opacity="1.0" stroke-linecap="round" stroke-linejoin="round"><circle cx="670.0" cy="916.3" r="32.5"/><line x1="670.0" y1="950.5" x2="670.0" y2="1057.3" stroke-width="48.0"/><path d="M650.8,967.5 L620.4,998.5 L663.8,1007.8" fill="none" stroke-width="26.4"/><path d="M689.2,967.5 L719.6,998.5 L676.2,1007.8" fill="none" stroke-width="26.4"/><line x1="670.0" y1="1057.3" x2="646.8" y2="1193.8" stroke-width="26.4"/><line x1="670.0" y1="1057.3" x2="693.2" y2="1193.8" stroke-width="26.4"/></g><g opacity="0.85"><rect x="800" y="1124" width="105" height="82" rx="6" fill="#f9193e"/><rect x="844" y="1124" width="17" height="82" fill="#ffffff" opacity=".18"/><rect x="800" y="1155" width="105" height="8" fill="#ffffff" opacity=".18"/></g><rect width="1000" height="1250" filter="url(#hero4_gr)" opacity="0.055"/></svg>