<svg xmlns="http://www.w3.org/2000/svg" viewBox="0 0 1800 1100" width="1800" height="1100" role="img" preserveAspectRatio="xMidYMid slice"><defs><linearGradient id="hero4_sky" x1="0" y1="0" x2="0" y2="1"><stop offset="0.00" stop-color="#123047"/><stop offset="0.25" stop-color="#2f6f8a"/><stop offset="0.50" stop-color="#7fb6c8"/><stop offset="0.75" stop-color="#cfe7ef"/><stop offset="1.00" stop-color="#eef8fb"/></linearGradient><radialGradient id="hero4_sun"><stop offset="0" stop-color="#fff8e2" stop-opacity=".95"/><stop offset=".45" stop-color="#ffe6ae" stop-opacity=".55"/><stop offset="1" stop-color="#ffd591" stop-opacity="0"/></radialGradient><radialGradient id="hero4_bok"><stop offset="0" stop-color="#ffffff" stop-opacity=".55"/><stop offset="1" stop-color="#ffffff" stop-opacity="0"/></radialGradient><filter id="hero4_gr" x="0" y="0" width="100%" height="100%"><feTurbulence type="fractalNoise" baseFrequency="0.9" numOctaves="3" stitchTiles="stitch"/><feColorMatrix type="saturate" values="0"/><feComponentTransfer><feFuncA type="linear" slope="0.5"/></feComponentTransfer></filter><filter id="hero4_soft" x="-20%" y="-20%" width="140%" height="140%"><feGaussianBlur stdDeviation="14"/></filter></defs><rect width="1800" height="1100" fill="url(#hero4_sky)"/><circle cx="430" cy="330" r="260" fill="url(#hero4_sun)"/><circle cx="430" cy="330" r="78" fill="#fff6dd" opacity=".9"/><circle cx="77" cy="454" r="23" fill="url(#hero4_bok)" opacity="0.34"/><circle cx="1758" cy="223" r="97" fill="url(#hero4_bok)" opacity="0.38"/><circle cx="1591" cy="15" r="79" fill="url(#hero4_bok)" opacity="0.35"/><circle cx="1088" cy="291" r="97" fill="url(#hero4_bok)" opacity="0.39"/><circle cx="1306" cy="526" r="64" fill="url(#hero4_bok)" opacity="0.44"/><circle cx="1109" cy="435" r="32" fill="url(#hero4_bok)" opacity="0.36"/><circle cx="278" cy="451" r="55" fill="url(#hero4_bok)" opacity="0.42"/><circle cx="1061" cy="281" r="62" fill="url(#hero4_bok)" opacity="0.25"/><circle cx="1767" cy="659" r="52" fill="url(#hero4_bok)" opacity="0.25"/><circle cx="803" cy="491" r="56" fill="url(#hero4_bok)" opacity="0.48"/><circle cx="91" cy="263" r="62" fill="url(#hero4_bok)" opacity="0.19"/><circle cx="839" cy="441" r="45" fill="url(#hero4_bok)" opacity="0.50"/><circle cx="629" cy="283" r="68" fill="url(#hero4_bok)" opacity="0.26"/><circle cx="848" cy="120" r="26" fill="url(#hero4_bok)" opacity="0.40"/><path d="M0,1100 L0,920 Q150,920 300,886 Q450,886 600,885 Q750,885 900,916 Q1050,916 1200,951 Q1350,951 1500,942 Q1650,942 1800,915 L1800,1100 Z" fill="#77a6b8" opacity="0.4"/><path d="M0,1100 L0,1040 Q150,1040 300,1051 Q450,1051 600,1036 Q750,1036 900,1017 Q1050,1017 1200,1004 Q1350,1004 1500,1020 Q1650,1020 1800,1044 L1800,1100 Z" fill="#3f5f78" opacity="0.8"/><path d="M0,1100 L0,1083 Q150,1083 300,1085 Q450,1085 600,1102 Q750,1102 900,1109 Q1050,1109 1200,1105 Q1350,1105 1500,1088 Q1650,1088 1800,1078 L1800,1100 Z" fill="#22344a" opacity="1"/><g opacity="0.95"><rect x="560" y="960" width="130" height="101" rx="8" fill="#e9b872"/><rect x="615" y="960" width="21" height="101" fill="#ffffff" opacity=".18"/><rect x="560" y="999" width="130" height="10" fill="#ffffff" opacity=".18"/></g><g opacity="0.9"><rect x="700" y="987" width="95" height="74" rx="6" fill="#f0cd93"/><rect x="740" y="987" width="15" height="74" fill="#ffffff" opacity=".18"/><rect x="700" y="1016" width="95" height="7" fill="#ffffff" opacity=".18"/></g><g fill="#1e2a3d" stroke="#1e2a3d" opacity="1.0" stroke-linecap="round" stroke-linejoin="round"><circle cx="880.0" cy="782.0" r="31.5"/><line x1="880.0" y1="815.1" x2="880.0" y2="918.5" stroke-width="46.5"/><path d="M861.4,831.6 L832.0,861.6 L874.0,870.6" fill="none" stroke-width="25.5"/><path d="M898.6,831.6 L928.0,861.6 L886.0,870.6" fill="none" stroke-width="25.5"/><line x1="880.0" y1="918.5" x2="857.5" y2="1050.5" stroke-width="25.5"/><line x1="880.0" y1="918.5" x2="902.5" y2="1050.5" stroke-width="25.5"/></g><g fill="#1e2a3d" stroke="#1e2a3d" opacity="1.0" stroke-linecap="round" stroke-linejoin="round"><circle cx="1050.0" cy="804.4" r="28.9"/><line x1="1050.0" y1="834.7" x2="1050.0" y2="929.5" stroke-width="42.6"/><path d="M1033.0,849.8 L1006.0,877.3 L1044.5,885.6" fill="none" stroke-width="23.4"/><path d="M1067.0,849.8 L1094.0,877.3 L1055.5,885.6" fill="none" stroke-width="23.4"/><line x1="1050.0" y1="929.5" x2="1029.4" y2="1050.5" stroke-width="23.4"/><line x1="1050.0" y1="929.5" x2="1070.6" y2="1050.5" stroke-width="23.4"/></g><g opacity="0.9"><rect x="1200" y="972" width="115" height="90" rx="7" fill="#e9b872"/><rect x="1248" y="972" width="18" height="90" fill="#ffffff" opacity=".18"/><rect x="1200" y="1006" width="115" height="9" fill="#ffffff" opacity=".18"/></g><rect width="1800" height="1100" filter="url(#hero4_gr)" opacity="0.055"/></svg>