<svg xmlns="http://www.w3.org/2000/svg" viewBox="0 0 1000 1250" width="1000" height="1250" role="img" preserveAspectRatio="xMidYMid slice"><defs><linearGradient id="hero1_sky" x1="0" y1="0" x2="0" y2="1"><stop offset="0.00" stop-color="#03121a"/><stop offset="0.25" stop-color="#083039"/><stop offset="0.50" stop-color="#14606f"/><stop offset="0.75" stop-color="#2fa0b4"/><stop offset="1.00" stop-color="#a2e0ea"/></linearGradient><radialGradient id="hero1_sun"><stop offset="0" stop-color="#ffffff" stop-opacity=".96"/><stop offset=".45" stop-color="#dcf7fb" stop-opacity=".55"/><stop offset="1" stop-color="#b9eaf3" stop-opacity="0"/></radialGradient><radialGradient id="hero1_bok"><stop offset="0" stop-color="#ffffff" stop-opacity=".55"/><stop offset="1" stop-color="#ffffff" stop-opacity="0"/></radialGradient><filter id="hero1_gr" x="0" y="0" width="100%" height="100%"><feTurbulence type="fractalNoise" baseFrequency="0.9" numOctaves="3" stitchTiles="stitch"/><feColorMatrix type="saturate" values="0"/><feComponentTransfer><feFuncA type="linear" slope="0.5"/></feComponentTransfer></filter><filter id="hero1_soft" x="-20%" y="-20%" width="140%" height="140%"><feGaussianBlur stdDeviation="14"/></filter></defs><rect width="1000" height="1250" fill="url(#hero1_sky)"/><circle cx="500" cy="500" r="320" fill="url(#hero1_sun)"/><circle cx="500" cy="500" r="96" fill="#ffffff" opacity=".92"/><circle cx="165" cy="604" r="39" fill="url(#hero1_bok)" opacity="0.33"/><circle cx="216" cy="694" r="47" fill="url(#hero1_bok)" opacity="0.34"/><circle cx="505" cy="207" r="12" fill="url(#hero1_bok)" opacity="0.30"/><circle cx="585" cy="61" r="46" fill="url(#hero1_bok)" opacity="0.25"/><circle cx="233" cy="37" r="55" fill="url(#hero1_bok)" opacity="0.42"/><circle cx="875" cy="539" r="13" fill="url(#hero1_bok)" opacity="0.29"/><circle cx="498" cy="101" r="53" fill="url(#hero1_bok)" opacity="0.30"/><circle cx="155" cy="715" r="17" fill="url(#hero1_bok)" opacity="0.48"/><circle cx="453" cy="483" r="27" fill="url(#hero1_bok)" opacity="0.34"/><circle cx="187" cy="32" r="49" fill="url(#hero1_bok)" opacity="0.26"/><circle cx="780" cy="182" r="54" fill="url(#hero1_bok)" opacity="0.47"/><circle cx="755" cy="667" r="37" fill="url(#hero1_bok)" opacity="0.41"/><circle cx="122" cy="417" r="48" fill="url(#hero1_bok)" opacity="0.24"/><circle cx="923" cy="777" r="30" fill="url(#hero1_bok)" opacity="0.30"/><g opacity="0.3"><path d="M0,0 C-36,-113 -23,-249 0,-268 C23,-249 36,-113 0,0 Z" fill="#ffffff" opacity="0.74" transform="translate(513.2,617.2) rotate(42.0)"/><path d="M0,0 C-36,-113 -23,-249 0,-268 C23,-249 36,-113 0,0 Z" fill="#ffffff" opacity="0.74" transform="translate(486.8,617.2) rotate(-42.0)"/><path d="M0,0 C-34,-131 -21,-289 0,-311 C21,-289 34,-131 0,0 Z" fill="#ffffff" opacity="0.84" transform="translate(542.4,582.6) rotate(54.6)"/><path d="M0,0 C-34,-131 -21,-289 0,-311 C21,-289 34,-131 0,0 Z" fill="#ffffff" opacity="0.84" transform="translate(457.6,582.6) rotate(-54.6)"/><path d="M0,0 C-31,-144 -19,-319 0,-343 C19,-319 31,-144 0,0 Z" fill="#ffffff" opacity="0.91" transform="translate(571.7,554.0) rotate(67.1)"/><path d="M0,0 C-31,-144 -19,-319 0,-343 C19,-319 31,-144 0,0 Z" fill="#ffffff" opacity="0.91" transform="translate(428.3,554.0) rotate(-67.1)"/><path d="M0,0 C-29,-151 -18,-335 0,-360 C18,-335 29,-151 0,0 Z" fill="#ffffff" opacity="0.95" transform="translate(600.9,533.6) rotate(79.7)"/><path d="M0,0 C-29,-151 -18,-335 0,-360 C18,-335 29,-151 0,0 Z" fill="#ffffff" opacity="0.95" transform="translate(399.1,533.6) rotate(-79.7)"/><path d="M0,0 C-26,-152 -16,-336 0,-362 C16,-336 26,-152 0,0 Z" fill="#ffffff" opacity="0.95" transform="translate(630.1,522.8) rotate(92.3)"/><path d="M0,0 C-26,-152 -16,-336 0,-362 C16,-336 26,-152 0,0 Z" fill="#ffffff" opacity="0.95" transform="translate(369.9,522.8) rotate(-92.3)"/><path d="M0,0 C-23,-146 -14,-324 0,-348 C14,-324 23,-146 0,0 Z" fill="#ffffff" opacity="0.91" transform="translate(659.3,522.7) rotate(104.9)"/><path d="M0,0 C-23,-146 -14,-324 0,-348 C14,-324 23,-146 0,0 Z" fill="#ffffff" opacity="0.91" transform="translate(340.7,522.7) rotate(-104.9)"/><path d="M0,0 C-21,-134 -13,-297 0,-320 C13,-297 21,-134 0,0 Z" fill="#ffffff" opacity="0.84" transform="translate(688.6,533.0) rotate(117.4)"/><path d="M0,0 C-21,-134 -13,-297 0,-320 C13,-297 21,-134 0,0 Z" fill="#ffffff" opacity="0.84" transform="translate(311.4,533.0) rotate(-117.4)"/><path d="M0,0 C-18,-117 -11,-259 0,-279 C11,-259 18,-117 0,0 Z" fill="#ffffff" opacity="0.74" transform="translate(717.8,553.2) rotate(130.0)"/><path d="M0,0 C-18,-117 -11,-259 0,-279 C11,-259 18,-117 0,0 Z" fill="#ffffff" opacity="0.74" transform="translate(282.2,553.2) rotate(-130.0)"/><ellipse cx="500" cy="620" rx="36" ry="66" fill="#ffffff" opacity=".55"/></g><path d="M0,1250 L0,985 Q83,985 167,1031 Q250,1031 333,1039 Q417,1039 500,982 Q583,982 667,932 Q750,932 833,953 Q917,953 1000,1009 L1000,1250 Z" fill="#0f5563" opacity="0.55"/><path d="M0,1250 L0,1089 Q83,1089 167,1079 Q250,1079 333,1101 Q417,1101 500,1157 Q583,1157 667,1153 Q750,1153 833,1120 Q917,1120 1000,1086 L1000,1250 Z" fill="#073540" opacity="0.85"/><path d="M0,1250 L0,1269 Q83,1269 167,1254 Q250,1254 333,1224 Q417,1224 500,1220 Q583,1220 667,1236 Q750,1236 833,1260 Q917,1260 1000,1271 L1000,1250 Z" fill="#03141a" opacity="1"/><g fill="#03141a" stroke="#03141a" opacity="1.0" stroke-linecap="round" stroke-linejoin="round"><circle cx="500.0" cy="808.9" r="45.1"/><line x1="500.0" y1="856.3" x2="500.0" y2="1004.5" stroke-width="66.7"/><path d="M473.3,880.0 L418.3,824.1 L405.4,751.0" fill="none" stroke-width="36.6"/><path d="M526.7,880.0 L581.7,824.1 L594.6,751.0" fill="none" stroke-width="36.6"/><line x1="500.0" y1="1004.5" x2="467.8" y2="1193.8" stroke-width="36.6"/><line x1="500.0" y1="1004.5" x2="532.2" y2="1193.8" stroke-width="36.6"/></g><path d="M760,594 C743,635 780,662 757,980" fill="none" stroke="#f9193e" stroke-opacity=".45" stroke-width="3.1"/><ellipse cx="760" cy="560" rx="34" ry="38" fill="#f9193e" opacity="0.9"/><rect width="1000" height="1250" filter="url(#hero1_gr)" opacity="0.055"/></svg>