<svg xmlns="http://www.w3.org/2000/svg" viewBox="0 0 1080 1920" width="1080" height="1920"><rect width="1080" height="1920" fill="#efeaf4"/><circle cx="170" cy="230" r="90" fill="#a86bff" opacity="0.9"/><rect x="300" y="180" width="330" height="30" rx="15" fill="#231a2e" opacity="0.85"/><rect x="300" y="240" width="220" height="24" rx="12" fill="#231a2e" opacity="0.35"/><text x="180" y="450" font-family="Helvetica,Arial,sans-serif" font-size="62" font-weight="700" fill="#231a2e" text-anchor="middle">21,7k</text><rect x="110" y="490" width="140" height="16" rx="8" fill="#231a2e" opacity="0.22"/><text x="510" y="450" font-family="Helvetica,Arial,sans-serif" font-size="62" font-weight="700" fill="#231a2e" text-anchor="middle">96</text><rect x="440" y="490" width="140" height="16" rx="8" fill="#231a2e" opacity="0.22"/><text x="840" y="450" font-family="Helvetica,Arial,sans-serif" font-size="62" font-weight="700" fill="#231a2e" text-anchor="middle">73%</text><rect x="770" y="490" width="140" height="16" rx="8" fill="#231a2e" opacity="0.22"/><rect x="90" y="560" width="900" height="2" fill="#231a2e" opacity="0.15"/><rect x="90" y="630" width="280" height="280" rx="18" fill="#a86bff" opacity="0.9"/><rect x="400" y="630" width="280" height="280" rx="18" fill="#231a2e" opacity="0.15"/><circle cx="540" cy="770" r="71" fill="#231a2e" opacity="0.12"/><rect x="710" y="630" width="280" height="280" rx="18" fill="#231a2e" opacity="0.2"/><circle cx="850" cy="770" r="76" fill="#231a2e" opacity="0.12"/><rect x="90" y="940" width="280" height="280" rx="18" fill="#231a2e" opacity="0.25"/><circle cx="230" cy="1080" r="86" fill="#231a2e" opacity="0.12"/><rect x="400" y="940" width="280" height="280" rx="18" fill="#a86bff" opacity="0.9"/><rect x="710" y="940" width="280" height="280" rx="18" fill="#231a2e" opacity="0.1"/><circle cx="850" cy="1080" r="62" fill="#231a2e" opacity="0.12"/><rect x="90" y="1250" width="280" height="280" rx="18" fill="#231a2e" opacity="0.15"/><circle cx="230" cy="1390" r="47" fill="#231a2e" opacity="0.12"/><rect x="400" y="1250" width="280" height="280" rx="18" fill="#231a2e" opacity="0.2"/><circle cx="540" cy="1390" r="45" fill="#231a2e" opacity="0.12"/><rect x="710" y="1250" width="280" height="280" rx="18" fill="#a86bff" opacity="0.9"/><rect x="90" y="1540" width="900" height="290" rx="22" fill="#231a2e" opacity="0.06"/><path d="M110 1709 L217 1700 L324 1693 L431 1685 L538 1681 L645 1662 L752 1655 L859 1635 L966 1621" fill="none" stroke="#a86bff" stroke-width="10" stroke-linecap="round" stroke-linejoin="round"/><circle cx="966" cy="1621" r="16" fill="#a86bff"/><text x="130" y="1610" font-family="Helvetica,Arial,sans-serif" font-size="40" font-weight="700" fill="#231a2e" opacity="0.8">Uloženia +148 %</text></svg>